<svg width="30" height="35" viewBox="0 0 30 35" fill="none" xmlns="http://www.w3.org/2000/svg">
<path d="M2.5 35C1.86111 35 1.28472 34.7431 0.770833 34.2292C0.256945 33.7153 0 33.1389 0 32.5V10.8333C0 10.1944 0.256945 9.61806 0.770833 9.10417C1.28472 8.59028 1.86111 8.33333 2.5 8.33333H5.41667V0H24.5833V8.33333H27.5C28.1389 8.33333 28.7153 8.59028 29.2292 9.10417C29.7431 9.61806 30 10.1944 30 10.8333V32.5C30 33.1389 29.7431 33.7153 29.2292 34.2292C28.7153 34.7431 28.1389 35 27.5 35H2.5ZM7.91667 8.33333H22.0833V2.5H7.91667V8.33333ZM2.5 32.5H27.5V10.8333H2.5V32.5ZM15 29.7917C12.75 29.7917 10.8333 29 9.25 27.4167C7.66667 25.8333 6.875 23.9167 6.875 21.6667C6.875 19.4167 7.66667 17.5 9.25 15.9167C10.8333 14.3333 12.75 13.5417 15 13.5417C17.25 13.5417 19.1667 14.3333 20.75 15.9167C22.3333 17.5 23.125 19.4167 23.125 21.6667C23.125 23.9167 22.3333 25.8333 20.75 27.4167C19.1667 29 17.25 29.7917 15 29.7917ZM15 27.7083C16.6667 27.7083 18.0903 27.1181 19.2708 25.9375C20.4514 24.7569 21.0417 23.3333 21.0417 21.6667C21.0417 20 20.4514 18.5764 19.2708 17.3958C18.0903 16.2153 16.6667 15.625 15 15.625C13.3333 15.625 11.9097 16.2153 10.7292 17.3958C9.54861 18.5764 8.95833 20 8.95833 21.6667C8.95833 23.3333 9.54861 24.7569 10.7292 25.9375C11.9097 27.1181 13.3333 27.7083 15 27.7083ZM16.9167 24.75L14.1667 22V17.5H15.8333V21.3333L18.0833 23.5833L16.9167 24.75Z" fill="white"/>
</svg>
