<svg width="34" height="34" viewBox="0 0 34 34" fill="none" xmlns="http://www.w3.org/2000/svg">
<path d="M23.2475 25.2025L25.16 23.29L18.4025 16.49V7.9475H15.8525V17.51L23.2475 25.2025ZM17 34C14.6767 34 12.4808 33.5537 10.4125 32.6613C8.34417 31.7688 6.53792 30.5504 4.99375 29.0063C3.44958 27.4621 2.23125 25.6558 1.33875 23.5875C0.44625 21.5192 0 19.3233 0 17C0 14.6767 0.44625 12.4808 1.33875 10.4125C2.23125 8.34417 3.44958 6.53792 4.99375 4.99375C6.53792 3.44958 8.34417 2.23125 10.4125 1.33875C12.4808 0.44625 14.6767 0 17 0C19.3233 0 21.5192 0.44625 23.5875 1.33875C25.6558 2.23125 27.4621 3.44958 29.0063 4.99375C30.5504 6.53792 31.7688 8.34417 32.6613 10.4125C33.5537 12.4808 34 14.6767 34 17C34 19.3233 33.5537 21.5192 32.6613 23.5875C31.7688 25.6558 30.5504 27.4621 29.0063 29.0063C27.4621 30.5504 25.6558 31.7688 23.5875 32.6613C21.5192 33.5537 19.3233 34 17 34ZM17 31.45C20.9667 31.45 24.3667 30.0333 27.2 27.2C30.0333 24.3667 31.45 20.9667 31.45 17C31.45 13.0333 30.0333 9.63333 27.2 6.8C24.3667 3.96667 20.9667 2.55 17 2.55C13.0333 2.55 9.63333 3.96667 6.8 6.8C3.96667 9.63333 2.55 13.0333 2.55 17C2.55 20.9667 3.96667 24.3667 6.8 27.2C9.63333 30.0333 13.0333 31.45 17 31.45Z" fill="white"/>
</svg>
