<svg width="28" height="32" viewBox="0 0 28 32" fill="none" xmlns="http://www.w3.org/2000/svg">
<path d="M9.33333 2.28844V0H18.6667V2.28844H9.33333ZM12.8333 19.3373H15.1667V10.565H12.8333V19.3373ZM14 32C12.0815 32 10.2731 31.6377 8.575 30.913C6.87685 30.1883 5.39259 29.203 4.12222 27.9571C2.85185 26.7112 1.84722 25.2555 1.10833 23.59C0.369445 21.9245 0 20.151 0 18.2694C0 16.3878 0.369445 14.6142 1.10833 12.9487C1.84722 11.2833 2.85185 9.82757 4.12222 8.58165C5.39259 7.33572 6.87685 6.35042 8.575 5.62574C10.2731 4.90107 12.0815 4.53874 14 4.53874C15.737 4.53874 17.3704 4.82479 18.9 5.3969C20.4296 5.96901 21.7907 6.76361 22.9833 7.78069L24.9667 5.83552L26.6 7.43743L24.6167 9.3826C25.55 10.3997 26.3472 11.6329 27.0083 13.0822C27.6694 14.5316 28 16.2606 28 18.2694C28 20.151 27.6306 21.9245 26.8917 23.59C26.1528 25.2555 25.1481 26.7112 23.8778 27.9571C22.6074 29.203 21.1231 30.1883 19.425 30.913C17.7269 31.6377 15.9185 32 14 32ZM14 29.7116C17.2407 29.7116 19.9954 28.5991 22.2639 26.3743C24.5324 24.1494 25.6667 21.4478 25.6667 18.2694C25.6667 15.091 24.5324 12.3894 22.2639 10.1645C19.9954 7.93961 17.2407 6.82717 14 6.82717C10.7593 6.82717 8.00463 7.93961 5.73611 10.1645C3.46759 12.3894 2.33333 15.091 2.33333 18.2694C2.33333 21.4478 3.46759 24.1494 5.73611 26.3743C8.00463 28.5991 10.7593 29.7116 14 29.7116Z" fill="white"/>
</svg>
